<svg width="59" height="59" viewBox="0 0 59 59" fill="none" xmlns="http://www.w3.org/2000/svg">
<g clip-path="url(#clip0_439_10847)">
<path d="M31.9262 14.1107C32.8708 13.5749 33.6114 12.7415 34.0325 11.7405C34.4535 10.7395 34.5313 9.6272 34.2537 8.57732C33.9761 7.52744 33.3588 6.599 32.498 5.93692C31.6372 5.27484 30.5814 4.91638 29.4954 4.91748C28.4095 4.91859 27.3544 5.27919 26.495 5.94302C25.6355 6.60684 25.02 7.53653 24.7446 8.58697C24.4691 9.63742 24.5492 10.7495 24.9723 11.7497C25.3953 12.7498 26.1376 13.5818 27.0833 14.1156L27.0587 14.1599C25.4485 17.5204 23.2114 22.3338 19.7575 24.1407C16.9206 25.6231 12.8496 24.8782 9.82582 24.3226C9.77731 23.6351 9.53707 22.9749 9.13234 22.4169C8.72761 21.859 8.1746 21.4256 7.53607 21.1661C6.89753 20.9065 6.19902 20.8311 5.5198 20.9484C4.84059 21.0658 4.20785 21.3711 3.69338 21.8298C3.17891 22.2886 2.80332 22.8823 2.6092 23.5437C2.41509 24.2051 2.41024 24.9076 2.59519 25.5716C2.78015 26.2356 3.1475 26.8345 3.65558 27.3003C4.16366 27.766 4.79212 28.0801 5.46965 28.2068L12.7168 46.9147C13.2543 48.3016 14.1985 49.4936 15.4256 50.3342C16.6528 51.1748 18.1054 51.6247 19.5928 51.6249H39.4069C40.8944 51.6247 42.347 51.1748 43.5741 50.3342C44.8012 49.4936 45.7454 48.3016 46.2829 46.9147L53.5276 28.2068C54.2009 28.0815 54.8259 27.7712 55.3328 27.3106C55.8396 26.8501 56.2082 26.2575 56.3972 25.5993C56.5862 24.9411 56.5882 24.2432 56.4029 23.5839C56.2176 22.9246 55.8524 22.33 55.3482 21.8666C54.844 21.4031 54.2207 21.0893 53.5481 20.9602C52.8756 20.8311 52.1804 20.8918 51.5404 21.1355C50.9004 21.3793 50.341 21.7965 49.9247 22.3403C49.5085 22.8841 49.2519 23.533 49.1837 24.2145C46.0887 24.6152 42.0988 25.1265 39.2422 23.6343C35.8571 21.8643 33.5881 17.3828 31.9262 14.1107Z" fill="white"/>
<circle cx="30" cy="36" r="4" fill="#131417"/>
</g>
<defs>
<clipPath id="clip0_439_10847">
<rect width="59" height="59" fill="white"/>
</clipPath>
</defs>
</svg>
