<svg width="33" height="32" viewBox="0 0 33 32" fill="none" xmlns="http://www.w3.org/2000/svg">
<path d="M8.25 29.3333C7.49375 29.3333 6.84613 29.0719 6.30713 28.5493C5.76813 28.0266 5.49909 27.399 5.5 26.6666V13.3333C5.5 12.5999 5.7695 11.9719 6.3085 11.4493C6.8475 10.9266 7.49467 10.6657 8.25 10.6666H9.625V7.99992C9.625 6.15547 10.2955 4.58303 11.6366 3.28259C12.9777 1.98214 14.5988 1.33236 16.5 1.33325C18.4021 1.33325 20.0237 1.98348 21.3648 3.28392C22.7058 4.58436 23.3759 6.15636 23.375 7.99992V10.6666H24.75C25.5063 10.6666 26.1539 10.9279 26.6929 11.4506C27.2319 11.9733 27.5009 12.6008 27.5 13.3333V26.6666C27.5 27.3999 27.2305 28.0279 26.6915 28.5506C26.1525 29.0732 25.5053 29.3341 24.75 29.3333H8.25ZM16.5 22.6666C17.2563 22.6666 17.9039 22.4053 18.4429 21.8826C18.9819 21.3599 19.2509 20.7324 19.25 19.9999C19.25 19.2666 18.9805 18.6386 18.4415 18.1159C17.9025 17.5933 17.2553 17.3324 16.5 17.3333C15.7438 17.3333 15.0961 17.5946 14.5571 18.1173C14.0181 18.6399 13.7491 19.2675 13.75 19.9999C13.75 20.7333 14.0195 21.3613 14.5585 21.8839C15.0975 22.4066 15.7447 22.6675 16.5 22.6666ZM12.375 10.6666H20.625V7.99992C20.625 6.88881 20.224 5.94436 19.4219 5.16659C18.6198 4.38881 17.6458 3.99992 16.5 3.99992C15.3542 3.99992 14.3802 4.38881 13.5781 5.16659C12.776 5.94436 12.375 6.88881 12.375 7.99992V10.6666Z" fill="white"/>
</svg>
