<svg width="71" height="71" viewBox="0 0 71 71" fill="none" xmlns="http://www.w3.org/2000/svg">
<path d="M25.5091 47.4205C26.0092 47.7736 26.5816 48.0111 27.1848 48.1158C27.788 48.2204 28.4069 48.1896 28.9967 48.0255C29.5865 47.8614 30.1325 47.5682 30.595 47.1671C31.0575 46.766 31.425 46.267 31.6709 45.7063L33.6234 39.7728C34.0988 38.3455 34.8998 37.0485 35.9631 35.9843C37.0264 34.9201 38.3228 34.118 39.7497 33.6414L45.4246 31.798C46.2304 31.5158 46.9274 30.9881 47.4177 30.2892C47.7952 29.7584 48.0412 29.1454 48.1352 28.5008C48.2291 27.8562 48.1685 27.1985 47.9582 26.582C47.7479 25.9655 47.394 25.4078 46.9257 24.955C46.4574 24.5022 45.8881 24.1672 45.2648 23.9778L39.6482 22.1521C38.2203 21.6784 36.9223 20.8786 35.8572 19.8161C34.792 18.7536 33.989 17.4577 33.5118 16.0309L31.6683 10.3585C31.3846 9.55497 30.8583 8.85941 30.1621 8.36796C29.4616 7.8849 28.6308 7.62622 27.7798 7.62622C26.9289 7.62622 26.0981 7.8849 25.3975 8.36796C24.69 8.86766 24.1577 9.57739 23.8761 10.3965L22.0098 16.1399C21.5342 17.5299 20.7484 18.7934 19.712 19.8346C18.6756 20.8759 17.4158 21.6675 16.0281 22.1496L10.3481 23.9905C9.53982 24.2762 8.84073 24.8067 8.34806 25.5083C7.85539 26.2098 7.59363 27.0474 7.59921 27.9047C7.60479 28.7619 7.87742 29.5961 8.37919 30.2911C8.88095 30.9862 9.58688 31.5076 10.3988 31.7827L16.0179 33.6085C17.84 34.2193 19.4416 35.3535 20.6228 36.8694C21.2973 37.7391 21.8171 38.7154 22.1594 39.7601L24.0054 45.4249C24.2894 46.2312 24.8168 46.9286 25.5142 47.4205H25.5091ZM50.2171 62.8376C50.7332 63.2023 51.35 63.3973 51.9819 63.3955C52.6096 63.3974 53.2225 63.2052 53.7367 62.8452C54.2648 62.4702 54.6607 61.9376 54.8676 61.3238L55.8109 58.4255C56.0102 57.8237 56.3471 57.2766 56.7947 56.8276C57.2423 56.3786 57.7884 56.0402 58.3897 55.8391L61.3463 54.8806C61.9429 54.6687 62.4596 54.2778 62.8259 53.7614C63.1921 53.2449 63.39 52.628 63.3927 51.9949C63.3927 51.3456 63.185 50.7133 62.7999 50.1904C62.4148 49.6676 61.8726 49.2816 61.2525 49.089L58.3517 48.1508C57.7495 47.9512 57.2023 47.6139 56.7533 47.1658C56.3043 46.7178 55.966 46.1711 55.7652 45.5694L54.8017 42.6204C54.5939 42.0185 54.2025 41.497 53.6826 41.1292C53.1628 40.7615 52.5407 40.5661 51.904 40.5706C51.2673 40.5751 50.648 40.7792 50.1334 41.1542C49.6188 41.5292 49.2348 42.0562 49.0354 42.661L48.0871 45.5669C47.8927 46.1608 47.5647 46.7021 47.1281 47.1492C46.6916 47.5963 46.1582 47.9372 45.5691 48.1457L42.6125 49.1042C42.0155 49.3163 41.4985 49.7075 41.1322 50.2244C40.766 50.7414 40.5683 51.3588 40.5662 51.9924C40.5668 52.6316 40.7688 53.2544 41.1434 53.7724C41.518 54.2904 42.0462 54.6772 42.6531 54.878L45.5539 55.8213C46.1577 56.0216 46.7061 56.3606 47.1553 56.8111C47.6044 57.2616 47.9418 57.811 48.1403 58.4154L49.1014 61.3644C49.3111 61.9602 49.701 62.4734 50.2171 62.8376Z" fill="white"/>
</svg>
